Coordinates
version=1
nRows=30
nColumns=23
inDegrees=yes

Units are S.I. units (second, meters, Newtons, ...)
Angles are in degrees.

endheader
time	pelvis_tilt	pelvis_list	pelvis_rotation	pelvis_tx	pelvis_ty	pelvis_tz	hip_flexion_r	hip_adduction_r	hip_rotation_r	knee_angle_r	knee_angle_r_beta	ankle_angle_r	subtalar_angle_r	mtp_angle_r	hip_flexion_l	hip_adduction_l	hip_rotation_l	knee_angle_l	knee_angle_l_beta	ankle_angle_l	subtalar_angle_l	mtp_angle_l
    120.00000000	    -15.92898488	      4.04692098	     -0.24370557	      0.00711110	      1.37280344	      0.23611750	     58.70832747	     -8.31300304	      0.94452100	     50.45458176	      0.88059857	      4.74446699	      0.00000000	      0.00000000	     64.34065010	     -3.44002562	     -1.35363215	     95.06574825	      1.65921031	     -1.32613402	      0.00000000	      0.00000000
    120.00888900	    -16.17010628	      4.60867754	      0.21419344	      0.00770789	      1.37245476	      0.23654793	     57.24775011	     -9.11027311	      0.47922612	     47.73031351	      0.83305112	      3.38692096	      0.00000000	      0.00000000	     65.97409622	     -2.87043040	     -1.48912362	     96.87295708	      1.69075206	     -1.27140831	      0.00000000	      0.00000000
    120.01777800	    -16.36805020	      4.95577991	      0.71393401	      0.00822336	      1.37213086	      0.23682451	     55.71479098	     -9.80746640	     -0.26456752	     45.06338819	      0.78650450	      1.75889359	      0.00000000	      0.00000000	     67.62715695	     -2.37393044	     -1.44009762	     98.62253120	      1.72128789	     -1.29531079	      0.00000000	      0.00000000
    120.02666700	    -16.57073132	      5.27376984	      1.20080441	      0.00873495	      1.37178659	      0.23718742	     54.23727193	    -10.45423379	     -1.05633211	     42.56665429	      0.74292827	      0.13233729	      0.00000000	      0.00000000	     69.28341412	     -1.91037974	     -1.40136230	    100.25843358	      1.74983977	     -1.26990605	      0.00000000	      0.00000000
    120.03555600	    -16.79232396	      5.58487676	      1.69508967	      0.00919472	      1.37142177	      0.23753672	     52.84408203	    -11.08239539	     -1.86005482	     40.24592281	      0.70242386	     -1.56785470	      0.00000000	      0.00000000	     70.95348920	     -1.43724932	     -1.38083424	    101.76001393	      1.77604729	     -1.19379163	      0.00000000	      0.00000000
    120.04444400	    -17.01577399	      5.87128747	      2.16567780	      0.00962387	      1.37110274	      0.23795104	     51.52069751	    -11.64590368	     -2.63862659	     38.11260416	      0.66519043	     -3.23848861	      0.00000000	      0.00000000	     72.60881351	     -0.99529213	     -1.37324927	    103.11359128	      1.79967167	     -1.10260229	      0.00000000	      0.00000000
    120.05333300	    -17.25207282	      6.18140238	      2.62288424	      0.01000612	      1.37079804	      0.23834783	     50.31848805	    -12.20441960	     -3.36461039	     36.23163812	      0.63236138	     -4.88022923	      0.00000000	      0.00000000	     74.24134192	     -0.54824115	     -1.42435532	    104.30246513	      1.82042143	     -0.97477211	      0.00000000	      0.00000000
    120.06222200	    -17.46700976	      6.41330465	      3.03565090	      0.01034343	      1.37059735	      0.23879319	     49.16502234	    -12.64378294	     -4.03487088	     34.55040870	      0.60301839	     -6.45445306	      0.00000000	      0.00000000	     75.82711857	     -0.16580189	     -1.42677193	    105.33395259	      1.83842429	     -0.85868370	      0.00000000	      0.00000000
    120.07111100	    -17.67431977	      6.63408962	      3.41930312	      0.01065299	      1.37050415	      0.23921925	     48.11127507	    -13.04140812	     -4.61441423	     33.12992907	      0.57822634	     -7.92511409	      0.00000000	      0.00000000	     77.35354588	      0.19763128	     -1.45105945	    106.19030543	      1.85337046	     -0.71526775	      0.00000000	      0.00000000
    120.08000000	    -17.86306330	      6.82487494	      3.74893007	      0.01091392	      1.37052222	      0.23962990	     47.14691825	    -13.36582427	     -5.08110141	     31.96959916	      0.55797477	     -9.23504633	      0.00000000	      0.00000000	     78.80039841	      0.51756655	     -1.47311317	    106.87156592	      1.86526070	     -0.55423234	      0.00000000	      0.00000000
    120.08888900	    -18.03468280	      7.00847605	      4.03993466	      0.01112783	      1.37064024	      0.23999126	     46.28948998	    -13.65389565	     -5.41994331	     31.09739006	      0.54275185	    -10.36512421	      0.00000000	      0.00000000	     80.15596758	      0.82207730	     -1.50659601	    107.37907492	      1.87411841	     -0.34530126	      0.00000000	      0.00000000
    120.09777800	    -18.17725835	      7.15593038	      4.27339023	      0.01130474	      1.37087065	      0.24033300	     45.52244551	    -13.86447795	     -5.61281408	     30.51048587	      0.53250843	    -11.28321971	      0.00000000	      0.00000000	     81.40309336	      1.08354252	     -1.52418901	    107.71699435	      1.88001621	     -0.10923070	      0.00000000	      0.00000000
    120.10666700	    -18.30154705	      7.31983452	      4.46943262	      0.01140299	      1.37115944	      0.24059075	     44.88465123	    -14.07034266	     -5.65970687	     30.25984507	      0.52813393	    -11.93801411	      0.00000000	      0.00000000	     82.53797529	      1.33795885	     -1.57344544	    107.88514334	      1.88295097	      0.20529569	      0.00000000	      0.00000000
    120.11555600	    -18.39841534	      7.47222895	      4.61851332	      0.01149841	      1.37156381	      0.24081741	     44.35191202	    -14.23504178	     -5.57401081	     30.31916606	      0.52916927	    -12.32640442	      0.00000000	      0.00000000	     83.53277896	      1.57587029	     -1.62168924	    107.87757747	      1.88281892	      0.58435209	      0.00000000	      0.00000000
    120.12444400	    -18.30518395	      7.53976116	      4.66463841	      0.01139267	      1.37222111	      0.24115155	     43.73467783	    -14.24098302	     -5.30783720	     30.62051396	      0.53442879	    -12.44269075	      0.00000000	      0.00000000	     84.25490744	      1.71663425	     -1.58028949	    107.69776232	      1.87968055	      0.73851929	      0.00000000	      0.00000000
    120.13333300	    -18.57196104	      7.73633632	      4.78483888	      0.01147994	      1.37233831	      0.24112784	     43.70904832	    -14.45620761	     -5.01388616	     31.39384480	      0.54792596	    -12.42831871	      0.00000000	      0.00000000	     85.18330092	      1.97145895	     -1.71999111	    107.39132177	      1.87433215	      1.56712883	      0.00000000	      0.00000000
    120.14222200	    -18.66634135	      7.90063734	      4.77759536	      0.01135039	      1.37260231	      0.24130943	     43.65489765	    -14.53175448	     -4.47454933	     32.46165912	      0.56656283	    -12.02743609	      0.00000000	      0.00000000	     85.83446076	      2.10697609	     -1.82181717	    106.90345718	      1.86581731	      2.11557093	      0.00000000	      0.00000000
    120.15111100	    -18.58613763	      7.86731542	      4.76894876	      0.01115682	      1.37306749	      0.24131157	     43.48859478	    -14.46338646	     -4.09552354	     33.71102676	      0.58836841	    -11.82991309	      0.00000000	      0.00000000	     86.22511997	      2.24467977	     -1.72210072	    106.27708886	      1.85488512	      2.60444403	      0.00000000	      0.00000000
    120.16000000	    -18.73434390	      8.13476389	      4.68884702	      0.01095712	      1.37312688	      0.24155444	     43.81509321	    -14.56298309	     -3.24940218	     35.45441711	      0.61879631	    -10.63410763	      0.00000000	      0.00000000	     86.62893255	      2.34036428	     -1.95502021	    105.44359890	      1.84033798	      3.41182570	      0.00000000	      0.00000000
    120.16888900	    -18.66783804	      8.08959451	      4.63606171	      0.01070944	      1.37337101	      0.24153264	     43.93973694	    -14.44106452	     -2.67297441	     37.28584542	      0.65076077	     -9.98152057	      0.00000000	      0.00000000	     86.75787198	      2.45221718	     -1.85766353	    104.50631824	      1.82397934	      4.05477624	      0.00000000	      0.00000000
    120.17777800	    -18.71207252	      8.26717511	      4.48554315	      0.01041922	      1.37334227	      0.24179590	     44.40038321	    -14.41619250	     -1.81776982	     39.50765775	      0.68953871	     -8.60013338	      0.00000000	      0.00000000	     86.80526042	      2.47618748	     -2.03071830	    103.35468190	      1.80387950	      4.83723422	      0.00000000	      0.00000000
    120.18666700	    -18.67258027	      8.28675707	      4.34852014	      0.01011352	      1.37332102	      0.24192362	     44.83286480	    -14.26800376	     -1.06790388	     41.85488387	      0.73050553	     -7.46304235	      0.00000000	      0.00000000	     86.66350189	      2.50318221	     -2.04106014	    102.06739214	      1.78141205	      5.54611256	      0.00000000	      0.00000000
    120.19555600	    -18.54962662	      8.17106860	      4.19327697	      0.00986175	      1.37331107	      0.24191619	     45.23442113	    -14.00335365	     -0.42729570	     44.33529240	      0.77379683	     -6.34630069	      0.00000000	      0.00000000	     86.32180739	      2.51715289	     -1.91766334	    100.67887171	      1.75717780	      6.30175872	      0.00000000	      0.00000000
    120.20444400	    -18.44730487	      8.18119330	      3.99284382	      0.00960986	      1.37313176	      0.24216140	     45.80181390	    -13.78703472	      0.33804545	     47.06457243	      0.82143175	     -4.88418287	      0.00000000	      0.00000000	     85.83539983	      2.46882922	     -1.95445905	     99.10569674	      1.72972072	      7.05909952	      0.00000000	      0.00000000
    120.21333300	    -18.32312142	      8.12891594	      3.79012483	      0.00939344	      1.37291800	      0.24231664	     46.39970246	    -13.51577064	      1.05573270	     49.86078508	      0.87023487	     -3.59738258	      0.00000000	      0.00000000	     85.20375656	      2.41617222	     -1.93463756	     97.39170377	      1.69980589	      7.73493394	      0.00000000	      0.00000000
    120.22222200	    -18.14834622	      7.99687627	      3.55944801	      0.00922488	      1.37268392	      0.24246507	     46.99057512	    -13.15689086	      1.69558452	     52.72315636	      0.92019267	     -2.30726566	      0.00000000	      0.00000000	     84.40191789	      2.31588057	     -1.85592387	     95.55980301	      1.66783320	      8.41364806	      0.00000000	      0.00000000
    120.23111100	    -17.95788054	      7.85644528	      3.31338699	      0.00911876	      1.37243135	      0.24261730	     47.61858879	    -12.77802689	      2.31231891	     55.63853213	      0.97107558	     -1.05017545	      0.00000000	      0.00000000	     83.45307199	      2.19160037	     -1.78626937	     93.59360792	      1.63351662	      9.04481210	      0.00000000	      0.00000000
    120.24000000	    -17.73101874	      7.63388023	      3.02719168	      0.00905921	      1.37215618	      0.24277705	     48.24486481	    -12.30398429	      2.85391024	     58.57813297	      1.02238129	      0.18337954	      0.00000000	      0.00000000	     82.35829206	      1.99571892	     -1.66274204	     91.52371394	      1.59739015	      9.64602599	      0.00000000	      0.00000000
    120.24888900	    -17.51109939	      7.42466288	      2.72986619	      0.00908325	      1.37188508	      0.24297069	     48.91832123	    -11.82507157	      3.39337974	     61.52344460	      1.07378668	      1.34479282	      0.00000000	      0.00000000	     81.14083099	      1.77953087	     -1.57237589	     89.32177010	      1.55895898	     10.17637300	      0.00000000	      0.00000000
    120.25777800	    -17.28316412	      7.18137129	      2.40094165	      0.00913583	      1.37161367	      0.24316280	     49.62677926	    -11.29777039	      3.89290328	     64.47679561	      1.12533237	      2.46118823	      0.00000000	      0.00000000	     79.80273505	      1.50797544	     -1.49092927	     87.01029589	      1.51861615	     10.65181820	      0.00000000	      0.00000000
